<svg width="150" height="50" viewBox="0 0 150 50" fill="none" xmlns="http://www.w3.org/2000/svg"><path d="M57.61.177h8.673v.885h-3.805v10.044H61.46V1.062h-3.805V.177h-.044zm9.69 0h1.019v4.735h6.504V.177h1.018v10.93h-1.018v-5.31h-6.504v5.31H67.3V.176zm10.797 0h7.522v.885h-6.504V5h6.106v.885h-6.106v4.292h6.593v.885h-7.61V.177zM57.61 38.187h6.948v.885h-5.886v3.938h5.222v.885h-5.221v5.22h-1.018V38.188h-.044zm12.788-.222c3.407 0 5.133 2.7 5.133 5.708 0 3.009-1.726 5.708-5.133 5.708-3.45 0-5.132-2.7-5.132-5.708 0-3.009 1.725-5.708 5.132-5.708zm0 10.487c2.877 0 4.115-2.434 4.115-4.823 0-2.39-1.239-4.823-4.115-4.823-2.876 0-4.115 2.433-4.115 4.823 0 2.433 1.24 4.823 4.115 4.823zm6.682-10.265h1.017v6.77c0 2.521 1.195 3.495 3.186 3.495 2.035 0 3.23-.974 3.23-3.496v-6.77h1.062v6.992c0 2.256-1.195 4.159-4.248 4.159-3.009 0-4.248-1.903-4.248-4.16v-6.99zm10.575 0h1.15l6.372 9.247h.044v-9.247h1.062v10.929h-1.15l-6.372-9.248h-.044v9.248h-1.062v-10.93zm10.752 0h3.761c3.318.088 5 1.858 5 5.442 0 3.628-1.726 5.398-5 5.443h-3.761V38.186zm1.062 10.044h2.212c3.142 0 4.513-1.283 4.513-4.558 0-3.274-1.371-4.557-4.513-4.557h-2.212v9.115zm12.611-10.044h1.15l4.292 10.929h-1.106l-1.327-3.407h-4.956l-1.327 3.407h-1.107l4.381-10.93zm-1.637 6.637h4.292l-2.124-5.575-2.168 5.575zm5.884-6.637H125v.885h-3.805v10.044h-1.062V39.072h-3.806v-.886zm9.735 0h1.062v10.929h-1.062v-10.93zm7.876-.222c3.407 0 5.133 2.7 5.133 5.708 0 3.009-1.726 5.708-5.133 5.708-3.452 0-5.133-2.7-5.133-5.708 0-3.009 1.726-5.708 5.133-5.708zm0 10.487c2.876 0 4.115-2.434 4.115-4.823 0-2.39-1.239-4.823-4.115-4.823-2.876 0-4.115 2.433-4.115 4.823.044 2.433 1.239 4.823 4.115 4.823zm6.77-10.265h1.151l6.371 9.247h.045v-9.247h1.061v10.929h-1.15l-6.372-9.248h-.044v9.248h-1.062v-10.93zM57.61 14.336h6.018V28.85h8.629v5H57.61V14.336zm18.629 0h6.018V33.85h-6.018V14.336zm10.487 0h6.15l5.708 10.443h.044V14.336h5.708V33.85h-5.84l-6.018-10.62h-.044v10.664h-5.708V14.336zm39.867 11.991c0 5.443-2.876 8.01-8.894 8.01-6.017 0-8.938-2.567-8.938-8.01v-11.99h6.018V25c0 1.991-.044 4.469 2.92 4.469 2.832 0 2.832-2.522 2.832-4.47V14.337h6.018v11.991h.044zm9.558-2.832l-6.416-9.159h7.079l2.965 5.31 2.92-5.31h6.682l-6.283 9.204L150 33.894h-7.256l-3.319-5.841-3.451 5.84h-6.903l7.08-10.398zM9.823 39.292V19.646H0v29.469h29.469v-9.823H9.823z" fill="#fff"/><path d="M49.115 0H0v14.735h9.823V9.867h29.469v29.425H34.38v9.823h14.735V0z" fill="#fff"/></svg>